<svg xmlns="http://www.w3.org/2000/svg" width="1024" height="611.1245" viewBox="0 0 1024 611.1245"><title>Untitled-1</title><path d="M337.1056,258.6952c-7.4562,15.63-71.1971,6.7132-83.4546,3.942Q222.5395,327.9193,178.52,371.0626q-44.028,43.1547-88.2747,43.1515-45.5672,0-67.902-53.0089Q.0008,308.2051,0,217.953,0,140.8547,10.9527,79.5194q3.942-22.7739,11.1715-30.8863,7.2278-8.1012,24.7505-8.1044,28.9137,0,28.9145,24.9709a93.7673,93.7673,0,0,1-.8765,9.6387Q61.7694,153.993,61.7694,217.953q0,67.0263,11.1715,101.8538,11.1723,34.8292,33.5143,34.8284,22.7715,0,49.5028-31.5426,26.7159-31.5408,49.0652-79.2921Q178.2977,227.1567,164.72,200.649q-13.5847-26.5012-13.5807-61.1132,0-34.6024,10.7324-58.4837,10.7307-23.8716,29.352-35.7033A75.5993,75.5993,0,0,1,232.6221,33.52q28.0308,0,44.4671,20.1523,16.4243,20.154,16.4242,55.1979,0,50.3825-21.8989,109.96c-1.2545,2.7936-4.5484,12.6752-4.5484,12.6752s-6.5877,26.3508-9.8816,6.5877C247.303,211.7416,283.5354,264.4433,337.1056,258.6952ZM222.985,199.9912q17.0853-49.058,17.0853-81.0453,0-18.4-4.82-26.9427-4.8251-8.5427-13.1417-8.5418-11.8284,0-19.2758,13.8-7.4545,13.7994-7.4482,39.2078Q195.3845,179.4086,222.985,199.9912Z" transform="translate(0 -0.2256)"/><path d="M310.5875,394.0617q-12.9262-20.1442-12.9246-53.4463,0-19.7126,5.0373-50.598A472.0061,472.0061,0,0,1,315.6247,232.41q3.9421-14.0166,10.5153-19.2758,6.5669-5.2569,21.0273-5.2577,22.34,0,22.3429,14.8948,0,10.9551-8.3247,50.8183-10.5136,48.1944-10.5153,65.274,0,13.1433,3.5062,20.1524c11.7054,20.712,44.6439,53.6506,83.8936-39.4282L433.03,361.2052c-24.3276,31.6985-55.9312,53.0089-81.0437,53.0089Q323.504,414.2141,310.5875,394.0617ZM327.89,170.4205q-9.1965-8.5426-9.2-23.8756,0-15.3291,12.05-25.6271,12.0432-10.2894,30.0082-10.295,16.2023,0,26.2833,7.8857,10.0746,7.884,10.0778,22.3413,0,17.5268-11.39,27.8192-11.3966,10.2966-30.23,10.2949Q337.0911,178.9639,327.89,170.4205Z" transform="translate(0 -0.2256)"/><path d="M663.6734,319.5881s-37.577,93.0788-86.9591,94.626q-33.2971,0-50.8167-38.9891Q507.495,398.45,493.6988,406.3284q-13.7994,7.8866-32.1987,7.8857-26.73,0-44.03-19.9336-17.312-19.9272-17.3024-51.912a144.3076,144.3076,0,0,1,14.8931-65.0553,132.9024,132.9024,0,0,1,40.9609-49.0653,119.1008,119.1008,0,0,1,58.4853-22.5616q8.3183-84.9849,31.7612-145.224Q569.6988.2321,607.8194.2256q18.8271,0,31.3205,17.0853,12.4872,17.0852,12.4871,51.6932,0,49.07-24.096,114.7784-24.0958,65.7114-64.3974,134.9291,1.7466,25.4132,7.6685,36.361C599.7456,406.0792,663.6734,319.5881,663.6734,319.5881ZM493.48,363.177q8.3134-6.7863,21.0273-25.19a292.0991,292.0991,0,0,1-4.3811-53.0073q0-10.516.8749-34.1706-24.096,7.4547-40.0827,32.1988a99.1471,99.1471,0,0,0-15.99,54.9791q0,31.9848,21.9022,31.98Q485.149,369.9674,493.48,363.177ZM586.3514,72.729q-8.3231,29.57-14.2369,77.32-5.9154,47.7554-8.5435,99.8836,49.06-106.8855,49.0669-171.7292,0-16.6438-2.8467-25.8459-2.8565-9.2012-6.79-9.2Q594.6729,43.1583,586.3514,72.729Z" transform="translate(0 -0.2256)"/><path d="M884.3617,319.5881s-37.5769,93.0788-86.959,94.626q-33.2973,0-50.8168-38.9891-18.4025,23.2251-32.1987,31.1034-13.8,7.8866-32.1987,7.8857-26.73,0-44.03-19.9336-17.3121-19.9272-17.3024-51.912A144.3076,144.3076,0,0,1,635.75,277.3132a132.9024,132.9024,0,0,1,40.9609-49.0653,119.1,119.1,0,0,1,58.4852-22.5616q8.3184-84.9849,31.7613-145.224Q790.3872.2321,828.5077.2256q18.8271,0,31.3206,17.0853,12.4871,17.0852,12.4871,51.6932,0,49.07-24.096,114.7784-24.096,65.7114-64.3975,134.9291,1.7467,25.4132,7.6685,36.361C820.4339,406.0792,884.3617,319.5881,884.3617,319.5881ZM714.1685,363.177q8.3134-6.7863,21.0272-25.19a292.108,292.108,0,0,1-4.3811-53.0073q0-10.516.875-34.1706-24.096,7.4547-40.0828,32.1988a99.1479,99.1479,0,0,0-15.99,54.9791q0,31.9848,21.9022,31.98Q705.8374,369.9674,714.1685,363.177ZM807.04,72.729q-8.3232,29.57-14.237,77.32-5.9154,47.7554-8.5434,99.8836,49.06-106.8855,49.0669-171.7292,0-16.6438-2.8468-25.8459-2.8563-9.2012-6.79-9.2Q815.3612,43.1583,807.04,72.729Z" transform="translate(0 -0.2256)"/><path d="M1020.06,210.5048q3.942,2.63,3.94,8.7622,0,10.5137-11.39,74.9127-10.0794,61.77-11.8276,73.16Q984.57,479.9231,956.1,545.64q-28.4865,65.7115-75.7908,65.71-22.34,0-36.361-13.7995T829.93,561.4083q0-20.593,9.4183-42.0546,9.4185-21.4711,35.0487-49.2824,25.6256-27.8305,72.5-63.7429l1.3157-10.0761q3.0589-16.2024,7.0091-46.4373-8.7671,31.5434-24.5335,47.9716-15.768,16.4266-33.2924,16.4275-19.7148,0-32.1987-18.1806Q852.71,377.86,852.71,350.6915a382.165,382.165,0,0,1,4.3811-60.2367A377.6613,377.6613,0,0,1,871.5466,232.41q4.3763-13.1433,12.2683-18.8384,7.884-5.6886,24.9709-5.6951,9.6308,0,13.362,3.0671,3.7152,3.0687,3.7217,9.2,0,3.51-4.8186,23.6569-4.381,16.2118-7.0091,29.35-3.5125,17.9683-6.1341,34.3893a177.719,177.719,0,0,0-2.628,26.9427q0,16.6535,9.2,16.6478,6.5717,0,16.4275-13.1432,9.8574-13.1433,21.0305-39.8657,11.17-26.7159,21.6834-65.7114,3.5029-13.1433,10.734-18.8384,7.2279-5.6886,21.6835-5.6951Q1016.1128,207.8768,1020.06,210.5048ZM909.6607,543.45q13.5727-25.4133,27.1615-84.5531-33.7411,28.4772-48.8449,51.9137-15.1167,23.43-15.1151,40.9609,0,7.4449,2.8467,12.2683,2.8469,4.8153,9.4184,4.8185Q896.0752,568.858,909.6607,543.45Z" transform="translate(0 -0.2256)"/></svg>