<?xml version="1.0" standalone="no"?>
<!DOCTYPE svg PUBLIC "-//W3C//DTD SVG 20010904//EN"
 "http://www.w3.org/TR/2001/REC-SVG-20010904/DTD/svg10.dtd">
<svg version="1.0" xmlns="http://www.w3.org/2000/svg"
 width="260.000000pt" height="260.000000pt" viewBox="0 0 260.000000 260.000000"
 preserveAspectRatio="xMidYMid meet">
<metadata>
Created by potrace 1.11, written by Peter Selinger 2001-2013
</metadata>
<g transform="translate(0.000000,260.000000) scale(0.100000,-0.100000)"
fill="#000000" stroke="none">
<path d="M1655 2578 c-167 -55 -291 -214 -342 -437 -21 -91 -26 -354 -9 -456
34 -199 120 -360 252 -470 32 -27 61 -50 62 -51 5 -3 -138 -293 -174 -354 -29
-51 -130 -197 -152 -220 -121 -132 -193 -180 -269 -180 -99 0 -161 68 -213
233 -10 31 -16 57 -14 57 2 0 -1 11 -6 24 -5 13 -12 50 -16 83 -3 32 -8 61
-10 64 -17 30 -26 617 -11 819 12 169 21 268 31 345 3 22 8 63 11 90 2 28 7
61 9 74 24 117 25 224 2 273 -50 105 -265 105 -323 0 -20 -35 -41 -99 -49
-152 -2 -14 -6 -34 -9 -45 -2 -11 -7 -42 -10 -70 -3 -27 -7 -66 -10 -85 -17
-122 -33 -331 -39 -502 -2 -47 -7 -91 -10 -97 -4 -6 -2 -11 4 -11 7 0 8 -6 1
-18 -6 -11 -6 -24 0 -34 6 -10 6 -19 0 -23 -7 -3 -7 -15 -1 -30 5 -14 5 -27 0
-30 -9 -6 -8 -61 3 -71 3 -4 3 -14 -1 -23 -9 -20 -9 -42 1 -58 5 -8 3 -13 -4
-13 -8 0 -7 -5 2 -17 12 -14 12 -16 0 -8 -11 6 -12 5 -5 -6 5 -8 9 -37 10 -65
2 -85 19 -269 30 -334 2 -14 9 -54 15 -90 23 -146 71 -302 126 -415 61 -125
124 -192 223 -239 56 -26 77 -31 151 -32 228 -3 443 140 679 452 30 40 84 119
119 176 66 105 201 367 201 388 0 12 27 11 110 -4 54 -10 124 -16 220 -17 90
-1 104 1 143 24 23 14 48 36 55 49 58 113 43 207 -37 227 -20 5 -92 12 -161
15 -113 5 -200 14 -208 21 -1 1 8 38 22 81 25 85 44 155 51 192 2 13 7 32 10
42 3 10 8 31 10 46 2 16 9 56 14 88 15 86 24 208 24 311 -2 233 -87 407 -232
473 -75 35 -190 39 -276 10z m118 -338 c22 -18 42 -59 54 -110 6 -25 5 -233
-1 -265 -3 -16 -10 -55 -16 -85 -6 -30 -13 -64 -15 -75 -7 -45 -57 -221 -64
-228 -19 -19 -102 94 -133 180 -27 77 -32 116 -32 238 -1 135 6 186 34 250 44
103 114 141 173 95z"/>
</g>
</svg>
